<?xml version="1.0" encoding="UTF-8"?>
<svg width="59px" height="59px" viewBox="0 0 59 59" version="1.1" xmlns="http://www.w3.org/2000/svg" xmlns:xlink="http://www.w3.org/1999/xlink">
    <!-- Generator: Sketch 44.1 (41455) - http://www.bohemiancoding.com/sketch -->
    <title>afhandelen</title>
    <desc>Created with Sketch.</desc>
    <defs></defs>
    <g id="Page-1" stroke="none" stroke-width="1" fill="none" fill-rule="evenodd">
        <g id="afhandelen">
            <path d="M15.9627437,4 L42,4 C43.1045695,4 44,4.8954305 44,6 L44,52 C44,53.1045695 43.1045695,54 42,54 L5,54 C3.8954305,54 3,53.1045695 3,52 L3,16.7010225 L15.9627437,4 Z" id="Combined-Shape" stroke="#FFFFFF" stroke-width="4"></path>
            <polygon id="Rectangle-17" fill="#023867" fill-rule="nonzero" points="38 0 52 0 52 58 42.28125 58 38 49.9291992"></polygon>
            <rect id="Rectangle-11" fill="#FFFFFF" fill-rule="nonzero" x="9" y="43" width="27" height="4" rx="2"></rect>
            <rect id="Rectangle-11-Copy" fill="#FFFFFF" fill-rule="nonzero" x="9" y="33" width="27" height="4" rx="2"></rect>
            <rect id="Rectangle-11-Copy-2" fill="#FFFFFF" fill-rule="nonzero" x="9" y="23" width="27" height="4" rx="2"></rect>
            <rect id="Rectangle-11-Copy-3" fill="#FFFFFF" fill-rule="nonzero" x="20" y="13" width="16" height="4" rx="2"></rect>
            <polygon id="Rectangle-12" fill="#FFFFFF" fill-rule="nonzero" points="9.43286133 10.6806641 18 2.36132812 18 19 0.865722656 19"></polygon>
            <rect id="Rectangle-13" fill="#FFFFFF" fill-rule="nonzero" x="40" y="1" width="14" height="11" rx="2"></rect>
            <rect id="Rectangle-16" fill="#FFFFFF" fill-rule="nonzero" x="55" y="3" width="4" height="23" rx="2"></rect>
            <rect id="Rectangle-14" fill="#FFFFFF" fill-rule="nonzero" x="50" y="13" width="3" height="30" rx="1.5"></rect>
            <rect id="Rectangle-14-Copy" fill="#FFFFFF" fill-rule="nonzero" x="44" y="13" width="5" height="30" rx="2"></rect>
            <rect id="Rectangle-14-Copy-2" fill="#FFFFFF" fill-rule="nonzero" x="40" y="13" width="3" height="30" rx="1.5"></rect>
            <polygon id="Rectangle-15" fill="#FFFFFF" fill-rule="nonzero" points="40 44 53 44 50.4831543 51 43.3438546 51"></polygon>
            <polygon id="Triangle-3" fill="#FFFFFF" fill-rule="nonzero" points="47 59 44 53 50 53"></polygon>
        </g>
    </g>
</svg>