<?xml version="1.0" encoding="UTF-8"?>
<svg width="63px" height="34px" viewBox="0 0 63 34" version="1.1" xmlns="http://www.w3.org/2000/svg" xmlns:xlink="http://www.w3.org/1999/xlink">
    <!-- Generator: Sketch 44.1 (41455) - http://www.bohemiancoding.com/sketch -->
    <title>anpr</title>
    <desc>Created with Sketch.</desc>
    <defs></defs>
    <g id="Page-1" stroke="none" stroke-width="1" fill="none" fill-rule="evenodd">
        <g id="anpr" transform="translate(1.000000, 1.000000)">
            <rect id="Rectangle" stroke="#FFFFFF" stroke-width="2" x="0" y="0" width="61" height="32" rx="6"></rect>
            <path d="M17.9853516,21 L21.3691406,10.2626953 L22.621582,10.2626953 L26.2250977,21 L24.8920898,21 L23.8666992,17.7480469 L20.1899414,17.7480469 L19.2231445,21 L17.9853516,21 Z M20.5268555,16.5908203 L23.5078125,16.5908203 L22.5922852,13.6171875 C22.3090806,12.704097 22.1015632,11.9619169 21.9697266,11.390625 C21.8574213,12.079105 21.6987315,12.7626919 21.4936523,13.4414062 L20.5268555,16.5908203 Z M27.1186523,21 L27.1186523,10.2626953 L28.3125,10.2626953 L32.9414062,18.6928711 L32.9414062,10.2626953 L34.0546875,10.2626953 L34.0546875,21 L32.8608398,21 L28.2392578,12.5625 L28.2392578,21 L27.1186523,21 Z M35.4682617,17.7773438 L35.4682617,16.4516602 L38.7861328,16.4516602 L38.7861328,17.7773438 L35.4682617,17.7773438 Z M40.1264648,21 L40.1264648,10.2626953 L43.4443359,10.2626953 C44.2255898,10.2626953 44.801756,10.331054 45.1728516,10.4677734 C45.6806666,10.6533212 46.085936,10.9975561 46.3886719,11.5004883 C46.6914078,12.0034205 46.8427734,12.6210901 46.8427734,13.3535156 C46.8427734,14.3203173 46.5961939,15.1088837 46.1030273,15.7192383 C45.6098608,16.3295929 44.7578186,16.6347656 43.546875,16.6347656 L41.2910156,16.6347656 L41.2910156,21 L40.1264648,21 Z M41.2910156,15.3676758 L43.5688477,15.3676758 C44.2866247,15.3676758 44.8115218,15.2053239 45.1435547,14.8806152 C45.4755876,14.5559066 45.6416016,14.0664095 45.6416016,13.4121094 C45.6416016,12.9873026 45.5598153,12.6235367 45.3962402,12.3208008 C45.2326652,12.0180649 45.0349133,11.8105474 44.8029785,11.6982422 C44.5710438,11.5859369 44.1523468,11.5297852 43.546875,11.5297852 L41.2910156,11.5297852 L41.2910156,15.3676758 Z M48.3222656,21 L48.3222656,10.2626953 L52.2260742,10.2626953 C53.041508,10.2626953 53.6433086,10.362792 54.0314941,10.5629883 C54.4196797,10.7631846 54.73828,11.0964332 54.9873047,11.5627441 C55.2363294,12.0290551 55.3608398,12.5698211 55.3608398,13.1850586 C55.3608398,13.9956095 55.1496603,14.6523412 54.7272949,15.1552734 C54.3049295,15.6582056 53.690922,15.9780267 52.8852539,16.1147461 C53.212404,16.3100596 53.4614249,16.5078115 53.6323242,16.7080078 C53.9790056,17.1181661 54.2841784,17.5747045 54.5478516,18.0776367 L56.0859375,21 L54.6210938,21 L53.4492188,18.7661133 C52.9951149,17.8920855 52.6521008,17.3037125 52.420166,17.0009766 C52.1882313,16.6982407 51.9636241,16.4943853 51.7463379,16.3894043 C51.5290516,16.2844233 51.2250996,16.2319336 50.8344727,16.2319336 L49.4868164,16.2319336 L49.4868164,21 L48.3222656,21 Z M49.4868164,15.0014648 L51.9916992,15.0014648 C52.538577,15.0014648 52.9536119,14.9355475 53.2368164,14.8037109 C53.5200209,14.6718743 53.7446281,14.4643569 53.9106445,14.1811523 C54.076661,13.8979478 54.159668,13.5683613 54.159668,13.1923828 C54.159668,12.6503879 54.0009781,12.2243668 53.6835938,11.9143066 C53.3662094,11.6042465 52.8950227,11.4492188 52.2700195,11.4492188 L49.4868164,11.4492188 L49.4868164,15.0014648 Z" id="AN-PR" fill="#FFFFFF"></path>
            <path d="M6,2 L14,2 L14,30 L6,30 C3.790861,30 2,28.209139 2,26 L2,6 C2,3.790861 3.790861,2 6,2 Z M5.36621094,19 L5.81445312,19 L5.81445312,15.625 L7.66308594,19 L8.140625,19 L8.140625,14.7050781 L7.6953125,14.7050781 L7.6953125,18.0771484 L5.84375,14.7050781 L5.36621094,14.7050781 L5.36621094,19 Z M8.90234375,19 L11.1025391,19 L11.1025391,18.4931641 L9.36816406,18.4931641 L9.36816406,14.7050781 L8.90234375,14.7050781 L8.90234375,19 Z" id="Combined-Shape" fill="#FFFFFF" fill-rule="nonzero"></path>
        </g>
    </g>
</svg>