<?xml version="1.0" encoding="UTF-8"?>
<svg width="66px" height="42px" viewBox="0 0 66 42" version="1.1" xmlns="http://www.w3.org/2000/svg" xmlns:xlink="http://www.w3.org/1999/xlink">
    <!-- Generator: Sketch 44.1 (41455) - http://www.bohemiancoding.com/sketch -->
    <title>email</title>
    <desc>Created with Sketch.</desc>
    <defs></defs>
    <g id="Page-1" stroke="none" stroke-width="1" fill="none" fill-rule="evenodd">
        <g id="email">
            <path d="M32.8871955,10.2682392 C33.366903,10.2682392 33.8180498,10.365584 34.2406493,10.5602766 C34.6632488,10.7549692 35.0344455,10.9945872 35.3542506,11.2791379 L34.90881,14.6038716 C34.8973884,14.6787534 34.8888224,14.753634 34.8831116,14.8285158 C34.8774008,14.9033976 34.8745454,14.9707901 34.8745454,15.0306956 C34.8745454,15.644726 35.0972634,15.9517366 35.5427061,15.9517366 C35.7597167,15.9517366 35.9624472,15.8656239 36.1509038,15.6933959 C36.3393603,15.5211678 36.5049711,15.2815497 36.6477412,14.9745345 C36.7905113,14.6675193 36.9018704,14.3043482 36.9818216,13.8850103 C37.0617729,13.4656724 37.1017479,13.0089005 37.1017479,12.5146809 C37.1017479,11.7658632 36.9960996,11.1031696 36.7847999,10.52658 C36.5735001,9.94999041 36.2822535,9.46701027 35.9110512,9.0776251 C35.5398489,8.68823993 35.0972682,8.39620543 34.5832958,8.20151285 C34.0693235,8.00682026 33.5039623,7.90947543 32.8871955,7.90947543 C32.0648397,7.90947543 31.336723,8.08918897 30.7028238,8.44862143 C30.0689245,8.8080539 29.532117,9.29103403 29.092385,9.89757632 C28.6526531,10.5041186 28.3214314,11.2117407 28.0987101,12.0204637 C27.8759887,12.8291868 27.7646297,13.6903141 27.7646297,14.6038716 C27.7646297,15.4725001 27.8531458,16.2587468 28.0301808,16.9626354 C28.2072157,17.666524 28.4841855,18.2655691 28.8610986,18.7597887 C29.2380117,19.2540084 29.7148567,19.6358997 30.2916479,19.905474 C30.8684391,20.1750484 31.55087,20.3098335 32.338961,20.3098335 C33.1613168,20.3098335 33.9322638,20.2012566 34.6518251,19.9840995 C35.3713865,19.7669423 36.0566727,19.4636758 36.7077044,19.0742906 L37.1360126,20.8040507 C36.3479216,21.2982703 35.5398549,21.6576974 34.7117883,21.8823427 C33.8837217,22.106988 33.075655,22.2193089 32.287564,22.2193089 C31.2710409,22.2193089 30.374458,22.0246193 29.5977887,21.6352341 C28.8211193,21.2458489 28.1643867,20.7141964 27.6275711,20.0402605 C27.0907555,19.3663246 26.6852945,18.5725898 26.4111758,17.6590323 C26.1370572,16.7454748 26,15.7720265 26,14.7386581 C26,13.5105972 26.1684662,12.3649234 26.5054036,11.3016024 C26.8423411,10.2382813 27.3191861,9.31350541 27.935953,8.52724689 C28.5527198,7.74098837 29.2922579,7.12322309 30.1545893,6.6739325 C31.0169207,6.22464192 31.9734661,6 33.0242541,6 C33.9037179,6 34.7003632,6.16473741 35.4142137,6.49421717 C36.1280642,6.82369693 36.7362558,7.27298077 37.2388065,7.84208218 C37.7413573,8.41118358 38.1296862,9.08885338 38.4038048,9.8751119 C38.6779234,10.6613704 38.8149806,11.5037776 38.8149806,12.4023588 C38.8149806,13.1212237 38.7350305,13.8026376 38.575128,14.4466207 C38.4152255,15.0906039 38.1839414,15.6559527 37.8812688,16.1426842 C37.5785962,16.6294157 37.2102548,17.015051 36.7762337,17.2996017 C36.3422126,17.5841524 35.8453801,17.7264256 35.2857212,17.7264256 C34.6575328,17.7264256 34.1692663,17.5354799 33.8209073,17.1535829 C33.4725482,16.7716859 33.2526856,16.3261461 33.1613127,15.8169501 C32.9328805,16.3261461 32.6559107,16.7192695 32.3303948,16.996332 C32.004879,17.2733946 31.6650912,17.4119237 31.3110214,17.4119237 C30.7285193,17.4119237 30.288794,17.1610736 29.9918322,16.6593658 C29.6948704,16.157658 29.5463917,15.5473807 29.5463917,14.8285158 C29.5463917,14.199509 29.620631,13.611696 29.7691119,13.0650591 C29.9175929,12.5184222 30.1317448,12.0354421 30.4115742,11.6161042 C30.6914036,11.1967663 31.0397574,10.8672915 31.4566462,10.6276699 C31.8735349,10.3880482 32.3503799,10.2682392 32.8871955,10.2682392 Z M32.8357985,12.200179 C32.6073663,12.200179 32.4103465,12.2638276 32.2447332,12.3911266 C32.0791199,12.5184256 31.9363519,12.6906511 31.816425,12.9078082 C31.6964981,13.1249653 31.607982,13.3720714 31.550874,13.6491339 C31.4937659,13.9261964 31.4652123,14.2069989 31.4652123,14.4915496 C31.4652123,14.7461475 31.502332,14.9633014 31.5765724,15.1430176 C31.6508129,15.3227339 31.7793041,15.4125906 31.9620498,15.4125906 C32.1447955,15.4125906 32.3218278,15.3189898 32.4931519,15.1317854 C32.6644761,14.944581 32.8186655,14.7236831 32.9557248,14.4690851 L33.2469743,12.2900367 C33.1213366,12.2301313 32.9842794,12.200179 32.8357985,12.200179 Z" id="@" fill="#FFFFFF"></path>
            <rect id="Rectangle-5" stroke="#FFFFFF" stroke-width="3" x="1.5" y="1.5" width="63" height="39" rx="5"></rect>
            <path d="M2.72167969,2.37792969 C16.3466797,20.5296224 26.269043,29.6054688 32.4887695,29.6054688 C38.7084961,29.6054688 48.6308594,20.6025391 62.2558594,2.59667969" id="Path-2" stroke="#FFFFFF" stroke-width="3"></path>
        </g>
    </g>
</svg>