<?xml version="1.0" encoding="UTF-8"?>
<svg width="276px" height="317px" viewBox="0 0 276 317" version="1.1" xmlns="http://www.w3.org/2000/svg" xmlns:xlink="http://www.w3.org/1999/xlink">
    <!-- Generator: Sketch 44.1 (41455) - http://www.bohemiancoding.com/sketch -->
    <title>fingerprint</title>
    <desc>Created with Sketch.</desc>
    <defs></defs>
    <g id="Page-1" stroke="none" stroke-width="1" fill="none" fill-rule="evenodd" stroke-linecap="round">
        <g id="fingerprint" transform="translate(4.000000, 4.000000)" stroke-width="8" stroke="#FFFFFF">
            <g id="Group">
                <path d="M14.855,84.2682201 C1.543,114.240067 -3.39,149.422254 2.832,184.997608" id="Shape"></path>
                <path d="M192.875,15.9515485 C167.332,1.49542164 137.604,-3.71837687 107.554,3.2675597 C73.418,11.202403 44.961,33.4607799 25.936,63.5191007" id="Shape"></path>
                <path d="M265.164,124.00931 C258.104,83.6398433 237.975,50.1536978 210.879,28.2308396" id="Shape"></path>
            </g>
            <g id="Group" transform="translate(2.000000, 123.369403)">
                <path d="M265.877,34.2378918 C266.061,23.176153 265.211,11.9195597 263.236,0.623764925" id="Shape"></path>
                <path d="M0.904,61.6132164 C1.292,63.8281007 1.718,66.0222313 2.183,68.1956082" id="Shape"></path>
            </g>
            <path d="M99.454,303.56944 C129.431,264.230743 143.703,209.785634 134.033,154.495388" id="Shape"></path>
            <path d="M111.176,244.822545 C104.621,264.190388 94.733,281.869108 82.156,296.736851" id="Shape"></path>
            <path d="M118.187,307.727104 C147.238,264.864884 160.489,208.186444 150.432,150.684772 L150.484,150.665172 C148.648,140.168396 139.781,133.375007 130.677,135.491888 C121.574,137.608769 115.683,147.832287 117.518,158.330216 L117.637,158.307157 C121.383,179.730772 121.087,201.013724 117.353,221.104489" id="Shape"></path>
            <path d="M102.51,170.807821 C107.755,215.429496 93.295,258.529231 66.348,287.597138" id="Shape"></path>
            <path d="M170.494,188.436963 C170.461,174.72797 169.267,160.82297 166.828,146.873004 L166.865,146.856862 C163.206,125.927877 145.525,112.381455 127.373,116.602534 C113.814,119.754795 103.827,131.928011 101.17,146.611276" id="Shape"></path>
            <path d="M138.273,308.709448 C155.017,280.497056 165.879,247.671571 169.318,212.898694" id="Shape"></path>
            <path d="M137.93,96.7331418 C133.401,96.3261381 128.746,96.6259142 124.071,97.7131791 C96.87,104.037302 79.266,134.584489 84.751,165.949142 L84.845,165.930694 C92.263,208.351321 78.552,250.027119 52.066,276.474291" id="Shape"></path>
            <path d="M159.608,305.914612 C183.716,258.529231 193.384,201.146317 183.225,143.060082 L183.249,143.048552 C180.226,125.767612 170.825,111.845317 158.442,103.885108" id="Shape"></path>
            <path d="M64.457,223.669881 C59.229,239.190213 50.58,252.981067 39.362,263.575847" id="Shape"></path>
            <path d="M201.084,229.513209 C205.246,200.381888 204.984,169.90734 199.623,139.249466 L199.633,139.241396 C192.323,97.4456866 157.016,70.3978097 120.768,78.8249776 C84.518,87.2532985 61.058,127.962896 68.368,169.759757 L68.446,169.74131 C70.182,179.668511 70.53,189.547287 69.643,199.10784" id="Shape"></path>
            <path d="M182.006,298.518213 C188.074,284.156631 192.973,269.094034 196.588,253.527582" id="Shape"></path>
            <path d="M201.666,97.724709 C208.549,108.616959 213.553,121.356291 216.016,135.433086 L216.021,135.437698 C225.116,187.441937 220.584,238.963075 205.277,285.102078" id="Shape"></path>
            <path d="M99.07,66.817791 C104.83,63.7739104 110.983,61.4414216 117.463,59.9356231 C143.072,53.9827612 168.305,62.1977799 187.051,79.8995597" id="Shape"></path>
            <path d="M28.275,249.102425 C47.177,231.594347 57.171,202.84697 52.046,173.554231 L51.983,173.570373 C45.617,137.174093 57.923,101.437321 81.298,79.5513582" id="Shape"></path>
            <path d="M33.684,159.084269 C33.899,165.13744 34.528,171.250567 35.6,177.378683 L35.651,177.363694 C39.403,198.817287 32.356,219.886937 18.83,233.102451" id="Shape"></path>
            <path d="M234.69,146.60897 C234.048,141.621157 233.291,136.626425 232.418,131.627082 L232.398,131.625929 C221.44,68.9634963 168.506,28.4130112 114.16,41.0462687 C72.395,50.756709 41.953,89.0508022 35.072,134.702093" id="Shape"></path>
            <path d="M228.983,263.178067 C235.809,233.65819 238.647,202.57256 236.914,170.905825" id="Shape"></path>
            <path d="M149.688,20.6741754 C137.096,18.7129478 124.013,19.0991978 110.858,22.1580672 C47.461,36.8955224 6.432,108.092351 19.215,181.186993 L19.254,181.175463 C21.473,193.858299 18.029,206.337056 10.941,215.153933" id="Shape"></path>
            <path d="M252.104,227.018149 C255.583,194.797981 254.688,161.394851 248.815,127.81416 L248.782,127.816466 C240.089,78.1089739 208.751,40.3302649 169.653,25.877597" id="Shape"></path>
        </g>
    </g>
</svg>