<?xml version="1.0" encoding="UTF-8"?>
<svg width="63px" height="34px" viewBox="0 0 63 34" version="1.1" xmlns="http://www.w3.org/2000/svg" xmlns:xlink="http://www.w3.org/1999/xlink">
    <!-- Generator: Sketch 44.1 (41455) - http://www.bohemiancoding.com/sketch -->
    <title>kenteken</title>
    <desc>Created with Sketch.</desc>
    <defs></defs>
    <g id="Page-1" stroke="none" stroke-width="1" fill="none" fill-rule="evenodd">
        <g id="kenteken" transform="translate(1.000000, 1.000000)">
            <rect id="Rectangle" stroke="#FFFFFF" stroke-width="2" x="0" y="0" width="61" height="32" rx="6"></rect>
            <path d="M20.5629883,21 L19.4790039,21 L19.4790039,12.5991211 C19.2299792,12.8920913 18.8955099,13.1911606 18.4755859,13.4963379 C18.055662,13.8015152 17.6699236,14.0322258 17.3183594,14.1884766 L17.3183594,12.9140625 C17.9140655,12.5722639 18.4401833,12.1547876 18.8967285,11.6616211 C19.3532738,11.1684546 19.6743155,10.6875023 19.8598633,10.21875 L20.5629883,10.21875 L20.5629883,21 Z M29.0297852,19.7329102 L29.0297852,21 L23.2070312,21 C23.1923827,20.4873021 23.3474105,19.9135774 23.6721191,19.2788086 C23.9968278,18.6440398 24.5913043,17.8945356 25.4555664,17.0302734 C26.4663136,16.024409 27.1279281,15.2468289 27.4404297,14.6975098 C27.7529312,14.1481906 27.9091797,13.6367211 27.9091797,13.1630859 C27.9091797,12.6162082 27.7492692,12.170656 27.4294434,11.826416 C27.1096175,11.482176 26.7153344,11.3100586 26.246582,11.3100586 C25.7436498,11.3100586 25.3310563,11.4956036 25.0087891,11.8666992 C24.6865218,12.2377948 24.5253906,12.7700161 24.5253906,13.4633789 L23.4121094,13.3242188 C23.4902348,12.2939402 23.7819799,11.5188014 24.2873535,10.9987793 C24.7927271,10.4787572 25.4580037,10.21875 26.2832031,10.21875 C27.1816451,10.21875 27.86157,10.5214813 28.322998,11.1269531 C28.7844261,11.7324249 29.0151367,12.4208946 29.0151367,13.1923828 C29.0151367,13.87598 28.8344745,14.531491 28.4731445,15.1589355 C28.1118146,15.7863801 27.4257863,16.6225534 26.4150391,17.6674805 C25.7705046,18.3266635 25.354249,18.7758777 25.1662598,19.0151367 C24.9782705,19.2543957 24.8256842,19.4936511 24.7084961,19.7329102 L29.0297852,19.7329102 Z M30.1796875,18.1655273 L31.2636719,17.9897461 C31.4882824,19.3960031 32.0571243,20.0991211 32.9702148,20.0991211 C33.4633814,20.0991211 33.8906232,19.8903829 34.2519531,19.4729004 C34.6132831,19.0554178 34.7939453,18.5146518 34.7939453,17.8505859 C34.7939453,17.2255828 34.6279313,16.7226582 34.2958984,16.3417969 C33.9638655,15.9609356 33.5561548,15.7705078 33.0727539,15.7705078 C32.8676748,15.7705078 32.613771,15.8193354 32.3110352,15.9169922 L32.4355469,14.7597656 L32.6040039,14.7744141 C33.1362331,14.7744141 33.5683577,14.6108415 33.9003906,14.2836914 C34.2324235,13.9565413 34.3984375,13.519534 34.3984375,12.9726562 C34.3984375,12.469724 34.2592787,12.0656754 33.980957,11.760498 C33.7026353,11.4553207 33.3632833,11.3027344 32.9628906,11.3027344 C32.5478495,11.3027344 32.1975112,11.4626449 31.9118652,11.7824707 C31.6262193,12.1022965 31.4443363,12.5869108 31.3662109,13.2363281 L30.2895508,13.0019531 C30.4262702,12.0839798 30.7338843,11.3906273 31.2124023,10.921875 C31.6909204,10.4531227 32.2695279,10.21875 32.9482422,10.21875 C33.6611364,10.21875 34.2665991,10.4824192 34.7646484,11.0097656 C35.2626978,11.537112 35.5117188,12.2011679 35.5117188,13.0019531 C35.5117188,13.4902368 35.4055186,13.9223614 35.1931152,14.2983398 C34.9807118,14.6743183 34.6840839,14.9697255 34.3032227,15.1845703 C34.6547869,15.2822271 34.9453114,15.4433583 35.1748047,15.6679688 C35.404298,15.8925792 35.589843,16.1928692 35.7314453,16.5688477 C35.8730476,16.9448261 35.9438477,17.3647438 35.9438477,17.8286133 C35.9438477,18.8149463 35.6533232,19.621823 35.0722656,20.2492676 C34.491208,20.8767121 33.7954142,21.1904297 32.9848633,21.1904297 C32.2329064,21.1904297 31.5957057,20.9169949 31.0732422,20.3701172 C30.5507786,19.8232395 30.2529301,19.0883835 30.1796875,18.1655273 Z M36.9106445,17.7773438 L36.9106445,16.4516602 L40.2285156,16.4516602 L40.2285156,17.7773438 L36.9106445,17.7773438 Z M40.6020508,21 L43.9858398,10.2626953 L45.2382812,10.2626953 L48.8417969,21 L47.5087891,21 L46.4833984,17.7480469 L42.8066406,17.7480469 L41.8398438,21 L40.6020508,21 Z M43.1435547,16.5908203 L46.1245117,16.5908203 L45.2089844,13.6171875 C44.9257798,12.704097 44.7182624,11.9619169 44.5864258,11.390625 C44.4741205,12.079105 44.3154307,12.7626919 44.1103516,13.4414062 L43.1435547,16.5908203 Z M49.7280273,21 L49.7280273,10.2626953 L53.03125,10.2626953 C53.7001987,10.2626953 54.2299785,10.366454 54.6206055,10.5739746 C55.0112324,10.7814952 55.3310534,11.1049783 55.5800781,11.5444336 C55.8291028,11.9838889 55.9536133,12.4697239 55.9536133,13.0019531 C55.9536133,13.4951197 55.8461925,13.9394511 55.6313477,14.3349609 C55.4165028,14.7304707 55.1137715,15.0478504 54.7231445,15.2871094 C55.2358424,15.4726572 55.6398911,15.7888161 55.9353027,16.2355957 C56.2307144,16.6823753 56.378418,17.2329069 56.378418,17.887207 C56.378418,18.5366243 56.2453627,19.106687 55.979248,19.5974121 C55.7131334,20.0881372 55.3579124,20.444579 54.9135742,20.666748 C54.4692361,20.8889171 53.8588906,21 53.0825195,21 L49.7280273,21 Z M50.8925781,14.7744141 L52.796875,14.7744141 C53.2949244,14.7744141 53.6489247,14.7402347 53.8588867,14.671875 C54.1616226,14.5693354 54.3947746,14.397218 54.5583496,14.1555176 C54.7219246,13.9138172 54.8037109,13.5854513 54.8037109,13.1704102 C54.8037109,12.784666 54.7292488,12.4636243 54.5803223,12.2072754 C54.4313957,11.9509265 54.2336438,11.7739263 53.9870605,11.6762695 C53.7404773,11.5786128 53.2973665,11.5297852 52.6577148,11.5297852 L50.8925781,11.5297852 L50.8925781,14.7744141 Z M50.8925781,19.7329102 L53.0825195,19.7329102 C53.5659204,19.7329102 53.9223621,19.6889653 54.1518555,19.6010742 C54.4838884,19.4741205 54.7365714,19.2653823 54.9099121,18.9748535 C55.0832528,18.6843247 55.1699219,18.3193381 55.1699219,17.8798828 C55.1699219,17.4746073 55.0869149,17.1315932 54.9208984,16.8508301 C54.754882,16.570067 54.5314955,16.3649909 54.2507324,16.2355957 C53.9699693,16.1062005 53.5292999,16.0415039 52.9287109,16.0415039 L50.8925781,16.0415039 L50.8925781,19.7329102 Z" id="123-AB" fill="#FFFFFF"></path>
            <path d="M6,2 L14,2 L14,30 L6,30 C3.790861,30 2,28.209139 2,26 L2,6 C2,3.790861 3.790861,2 6,2 Z M5.36621094,19 L5.81445312,19 L5.81445312,15.625 L7.66308594,19 L8.140625,19 L8.140625,14.7050781 L7.6953125,14.7050781 L7.6953125,18.0771484 L5.84375,14.7050781 L5.36621094,14.7050781 L5.36621094,19 Z M8.90234375,19 L11.1025391,19 L11.1025391,18.4931641 L9.36816406,18.4931641 L9.36816406,14.7050781 L8.90234375,14.7050781 L8.90234375,19 Z" id="Combined-Shape" fill="#FFFFFF" fill-rule="nonzero"></path>
        </g>
    </g>
</svg>