<?xml version="1.0" encoding="UTF-8"?>
<svg width="54px" height="66px" viewBox="0 0 54 66" version="1.1" xmlns="http://www.w3.org/2000/svg" xmlns:xlink="http://www.w3.org/1999/xlink">
    <!-- Generator: Sketch 44.1 (41455) - http://www.bohemiancoding.com/sketch -->
    <title>locatie</title>
    <desc>Created with Sketch.</desc>
    <defs></defs>
    <g id="Page-1" stroke="none" stroke-width="1" fill="none" fill-rule="evenodd">
        <g id="locatie" transform="translate(3.000000, 0.000000)">
            <polygon id="Rectangle-5" stroke="#FFFFFF" stroke-width="4" points="8.5511643 45 0.28608394 63.6464844 47.8514859 63.6464844 39.871852 45"></polygon>
            <path d="M24,55.171875 C11.3333333,38.1206068 5,26.0971693 5,19.1015625 C5,8.60815225 13.5065898,0.1015625 24,0.1015625 C34.4934102,0.1015625 43,8.60815225 43,19.1015625 C43,26.0971693 36.6666667,38.1206068 24,55.171875 Z M24,30.5015625 C30.8956696,30.5015625 36.4857143,25.1545632 36.4857143,18.5587054 C36.4857143,11.9628475 30.8956696,6.61584821 24,6.61584821 C17.1043304,6.61584821 11.5142857,11.9628475 11.5142857,18.5587054 C11.5142857,25.1545632 17.1043304,30.5015625 24,30.5015625 Z" id="Combined-Shape-Copy" fill="#023867" fill-rule="nonzero"></path>
            <path d="M24,52.2734375 C12.6666667,37.0170397 7,26.2592272 7,20 C7,10.6111593 14.6111593,3 24,3 C33.3888407,3 41,10.6111593 41,20 C41,26.2592272 35.3333333,37.0170397 24,52.2734375 Z M24,30.2 C30.1698096,30.2 35.1714286,25.4158428 35.1714286,19.5142857 C35.1714286,13.6127287 30.1698096,8.82857143 24,8.82857143 C17.8301904,8.82857143 12.8285714,13.6127287 12.8285714,19.5142857 C12.8285714,25.4158428 17.8301904,30.2 24,30.2 Z" id="Combined-Shape" fill="#FFFFFF" fill-rule="nonzero"></path>
            <path d="M18.5351562,62.8076172 C20.3222656,58.9716797 23.0602214,56.4736328 26.7490234,55.3134766 C32.2822266,53.5732422 32.5195312,53.6474609 34.4648438,51.2177734 C35.7617188,49.5979818 37.5045573,48.0602214 39.6933594,46.6044922" id="Path-2" stroke="#FFFFFF" stroke-width="2"></path>
            <path d="M8.0644531,48.4345703 C13.4407552,52.913737 18.2483724,55.8870443 22.4873047,57.3544922" id="Path-3" stroke="#FFFFFF" stroke-width="2"></path>
        </g>
    </g>
</svg>