<?xml version="1.0" encoding="UTF-8"?>
<svg width="63px" height="52px" viewBox="0 0 63 52" version="1.1" xmlns="http://www.w3.org/2000/svg" xmlns:xlink="http://www.w3.org/1999/xlink">
    <!-- Generator: Sketch 44.1 (41455) - http://www.bohemiancoding.com/sketch -->
    <title>multimedia</title>
    <desc>Created with Sketch.</desc>
    <defs></defs>
    <g id="Page-1" stroke="none" stroke-width="1" fill="none" fill-rule="evenodd">
        <g id="multimedia" transform="translate(0.000000, 2.000000)">
            <rect id="Rectangle-9-Copy" stroke="#FFFFFF" stroke-width="3" transform="translate(32.677479, 23.374178) rotate(21.000000) translate(-32.677479, -23.374178) " x="9.17747892" y="7.37417807" width="47" height="32"></rect>
            <g id="Rectangle-9" transform="translate(0.000000, 15.000000)">
                <g id="path-1-link" fill="#023867">
                    <rect id="path-1" x="0" y="0" width="50" height="35"></rect>
                </g>
                <rect id="Rectangle-path" stroke="#FFFFFF" stroke-width="3" x="1.5" y="1.5" width="47" height="32"></rect>
            </g>
            <g id="Group-Copy-2" transform="translate(24.000000, 24.000000)" fill-rule="nonzero" fill="#FFFFFF">
                <g id="Group-2" transform="translate(0.000000, 10.000000)">
                    <path d="M4.31954887,0.141025641 L2.16071429,0.141025641 L2.16071429,0.141025641 C1.05614479,0.141025641 0.160714286,1.03645614 0.160714286,2.14102564 L0.160714286,2.14102564 L0.160714286,8.85897436 C0.160714286,9.96354386 1.05614479,10.8589744 2.16071429,10.8589744 L8.60526316,10.8589744 L4.31954887,0.141025641 Z M13.6804511,0.141025641 L15.8392857,0.141025641 C16.9438552,0.141025641 17.8392857,1.03645614 17.8392857,2.14102564 L17.8392857,8.85897436 C17.8392857,9.96354386 16.9438552,10.8589744 15.8392857,10.8589744 L9.39473684,10.8589744 L13.6804511,0.141025641 Z" id="Combined-Shape"></path>
                    <polygon id="Triangle-2" points="8.99413529 8.23552459 6.73308271 2.62868591 8.99413529 0.564284529 11.2551879 2.62868591"></polygon>
                </g>
                <ellipse id="Oval" cx="8.5" cy="5" rx="4.5" ry="5"></ellipse>
            </g>
            <g id="Group-Copy" transform="translate(5.000000, 22.000000)">
                <g id="Group-2" transform="translate(0.000000, 10.000000)">
                    <g id="Combined-Shape">
                        <g id="path-2-link" transform="translate(1.000000, 1.000000)" fill="#FFFFFF">
                            <path d="M5.03947368,0.166666667 L2.1875,0.166666667 L2.1875,0.166666667 C1.0829305,0.166666667 0.1875,1.06209717 0.1875,2.16666667 L0.1875,2.16666667 L0.1875,10.8333333 C0.1875,11.9379028 1.0829305,12.8333333 2.1875,12.8333333 L2.1875,12.8333333 L10.0394737,12.8333333 L5.03947368,0.166666667 Z M15.9605263,0.166666667 L18.8125,0.166666667 C19.9170695,0.166666667 20.8125,1.06209717 20.8125,2.16666667 L20.8125,10.8333333 L20.8125,10.8333333 C20.8125,11.9379028 19.9170695,12.8333333 18.8125,12.8333333 L10.9605263,12.8333333 L15.9605263,0.166666667 Z" id="path-2"></path>
                        </g>
                        <path d="M3.1875,0.666666667 L6.37964995,0.666666667 L11.7743868,14.3333333 L3.1875,14.3333333 C1.80678812,14.3333333 0.6875,13.2140452 0.6875,11.8333333 L0.6875,3.16666667 C0.6875,1.78595479 1.80678812,0.666666667 3.1875,0.666666667 Z M16.62035,0.666666667 L19.8125,0.666666667 C21.1932119,0.666666667 22.3125,1.78595479 22.3125,3.16666667 L22.3125,11.8333333 C22.3125,13.2140452 21.1932119,14.3333333 19.8125,14.3333333 L11.2256132,14.3333333 L16.62035,0.666666667 Z" id="Shape" stroke="#023867"></path>
                    </g>
                    <polygon id="Triangle-2" fill="#FFFFFF" fill-rule="nonzero" points="11.4931578 10.7328927 8.85526316 4.1066288 11.4931578 1.66688172 14.1310525 4.1066288"></polygon>
                </g>
                <circle id="Oval" fill="#FFFFFF" fill-rule="nonzero" cx="11.5" cy="5.5" r="5.5"></circle>
            </g>
        </g>
    </g>
</svg>