<?xml version="1.0" encoding="UTF-8"?>
<svg width="59px" height="22px" viewBox="0 0 59 22" version="1.1" xmlns="http://www.w3.org/2000/svg" xmlns:xlink="http://www.w3.org/1999/xlink">
    <!-- Generator: Sketch 44.1 (41455) - http://www.bohemiancoding.com/sketch -->
    <title>number</title>
    <desc>Created with Sketch.</desc>
    <defs></defs>
    <g id="Page-1" stroke="none" stroke-width="1" fill="none" fill-rule="evenodd">
        <g id="number" fill="#FFFFFF">
            <path d="M6.324,5.004 C6.324,5.58000288 6.26800056,6.1179975 6.156,6.618 C6.04399944,7.1180025 5.87400114,7.55599812 5.646,7.932 C5.41799886,8.30800188 5.12600178,8.60399892 4.77,8.82 C4.41399822,9.03600108 3.99200244,9.144 3.504,9.144 C3.01599756,9.144 2.59400178,9.03600108 2.238,8.82 C1.88199822,8.60399892 1.59000114,8.30800188 1.362,7.932 C1.13399886,7.55599812 0.96400056,7.1180025 0.852,6.618 C0.73999944,6.1179975 0.684,5.58000288 0.684,5.004 C0.684,4.42799712 0.73999944,3.8900025 0.852,3.39 C0.96400056,2.8899975 1.13399886,2.45200188 1.362,2.076 C1.59000114,1.69999812 1.88199822,1.40400108 2.238,1.188 C2.59400178,0.97199892 3.01599756,0.864 3.504,0.864 C3.99200244,0.864 4.41399822,0.97199892 4.77,1.188 C5.12600178,1.40400108 5.41799886,1.69999812 5.646,2.076 C5.87400114,2.45200188 6.04399944,2.8899975 6.156,3.39 C6.26800056,3.8900025 6.324,4.42799712 6.324,5.004 Z M3.504,8.484 C3.87200184,8.484 4.18399872,8.39600088 4.44,8.22 C4.69600128,8.04399912 4.9039992,7.80000156 5.064,7.488 C5.2240008,7.17599844 5.33999964,6.80800212 5.412,6.384 C5.48400036,5.95999788 5.52,5.50000248 5.52,5.004 C5.52,4.51599756 5.48400036,4.06000212 5.412,3.636 C5.33999964,3.21199788 5.2240008,2.84400156 5.064,2.532 C4.9039992,2.21999844 4.69600128,1.9740009 4.44,1.794 C4.18399872,1.6139991 3.87200184,1.524 3.504,1.524 C3.13599816,1.524 2.82400128,1.6139991 2.568,1.794 C2.31199872,1.9740009 2.1040008,2.21999844 1.944,2.532 C1.7839992,2.84400156 1.66800036,3.21199788 1.596,3.636 C1.52399964,4.06000212 1.488,4.51599756 1.488,5.004 C1.488,5.50000248 1.52399964,5.95999788 1.596,6.384 C1.66800036,6.80800212 1.7839992,7.17599844 1.944,7.488 C2.1040008,7.80000156 2.31199872,8.04399912 2.568,8.22 C2.82400128,8.39600088 3.13599816,8.484 3.504,8.484 Z M9.144,9 L9.144,1.848 L7.512,2.556 L7.272,1.932 L9.384,1.008 L9.948,1.008 L9.948,9 L9.144,9 Z M11.844,1.332 C12.052001,1.18799928 12.3099985,1.07400042 12.618,0.99 C12.9260015,0.90599958 13.2519983,0.864 13.596,0.864 C13.9400017,0.864 14.2519986,0.91599948 14.532,1.02 C14.8120014,1.12400052 15.051999,1.275999 15.252,1.476 C15.452001,1.676001 15.6059995,1.9159986 15.714,2.196 C15.8220005,2.4760014 15.876,2.79199824 15.876,3.144 C15.876,3.77600316 15.7200016,4.36399728 15.408,4.908 C15.0959984,5.45200272 14.6760026,5.99999724 14.148,6.552 C13.955999,6.74400096 13.7840008,6.9199992 13.632,7.08 C13.4799992,7.2400008 13.3340007,7.38799932 13.194,7.524 C13.0539993,7.66000068 12.9180007,7.79399934 12.786,7.926 C12.6539993,8.05800066 12.5160007,8.19199932 12.372,8.328 L16.02,8.328 L16.02,9 L11.46,9 L11.364,8.484 C11.572001,8.25999888 11.771999,8.048001 11.964,7.848 C12.156001,7.647999 12.3439991,7.45200096 12.528,7.26 C12.7120009,7.06799904 12.8939991,6.87800094 13.074,6.69 C13.2540009,6.50199906 13.4359991,6.30400104 13.62,6.096 C14.0520022,5.6159976 14.4019987,5.14400232 14.67,4.68 C14.9380013,4.21599768 15.072,3.71600268 15.072,3.18 C15.072,2.68399752 14.9420013,2.2860015 14.682,1.986 C14.4219987,1.6859985 14.0360026,1.536 13.524,1.536 C13.2279985,1.536 12.9660011,1.5759996 12.738,1.656 C12.5099989,1.7360004 12.2840011,1.83999936 12.06,1.968 L11.844,1.332 Z M21.612,6.924 C21.612,7.26000168 21.5480006,7.56399864 21.42,7.836 C21.2919994,8.10800136 21.1140011,8.34199902 20.886,8.538 C20.6579989,8.73400098 20.3880016,8.88399948 20.076,8.988 C19.7639984,9.09200052 19.4200019,9.144 19.044,9.144 C18.8999993,9.144 18.7440008,9.1340001 18.576,9.114 C18.4079992,9.0939999 18.2440008,9.06600018 18.084,9.03 C17.9239992,8.99399982 17.7700007,8.95200024 17.622,8.904 C17.4739993,8.85599976 17.3400006,8.80400028 17.22,8.748 L17.388,8.088 C17.6280012,8.20000056 17.8899986,8.29199964 18.174,8.364 C18.4580014,8.43600036 18.7399986,8.472 19.02,8.472 C19.620003,8.472 20.0679985,8.32800144 20.364,8.04 C20.6600015,7.75199856 20.808,7.39600212 20.808,6.972 C20.808,6.67599852 20.7480006,6.42000108 20.628,6.204 C20.5079994,5.98799892 20.344001,5.80800072 20.136,5.664 C19.927999,5.51999928 19.6840014,5.41200036 19.404,5.34 C19.1239986,5.26799964 18.8280016,5.232 18.516,5.232 L18.012,5.232 L18.012,4.56 L18.456,4.56 C18.7680016,4.56 19.0559987,4.5200004 19.32,4.44 C19.5840013,4.3599996 19.815999,4.24400076 20.016,4.092 C20.216001,3.93999924 20.3719994,3.75800106 20.484,3.546 C20.5960006,3.33399894 20.652,3.09600132 20.652,2.832 C20.652,2.42399796 20.5220013,2.10600114 20.262,1.878 C20.0019987,1.64999886 19.6440023,1.536 19.188,1.536 C18.8839985,1.536 18.6100012,1.56799968 18.366,1.632 C18.1219988,1.69600032 17.896001,1.78399944 17.688,1.896 L17.508,1.272 C17.7640013,1.12799928 18.0419985,1.02400032 18.342,0.96 C18.6420015,0.89599968 18.9479984,0.864 19.26,0.864 C19.5800016,0.864 19.8739987,0.90799956 20.142,0.996 C20.4100013,1.08400044 20.641999,1.2079992 20.838,1.368 C21.034001,1.5280008 21.1859995,1.72399884 21.294,1.956 C21.4020005,2.18800116 21.456,2.44799856 21.456,2.736 C21.456,3.24000252 21.2980016,3.6719982 20.982,4.032 C20.6659984,4.3920018 20.2480026,4.66399908 19.728,4.848 C20.2800028,4.97600064 20.7319982,5.21799822 21.084,5.574 C21.4360018,5.93000178 21.612,6.37999728 21.612,6.924 Z M27.072,6.576 L27.072,9 L26.292,9 L26.292,6.576 L22.92,6.576 L22.812,5.94 L26.232,1.008 L27.072,1.008 L27.072,5.916 L28.176,5.916 L28.176,6.576 L27.072,6.576 Z M26.292,2.028 L23.64,5.916 L26.292,5.916 L26.292,2.028 Z M33.984,6.792 C33.984,7.14400176 33.9160007,7.46399856 33.78,7.752 C33.6439993,8.04000144 33.4540012,8.28599898 33.21,8.49 C32.9659988,8.69400102 32.6760017,8.85399942 32.34,8.97 C32.0039983,9.08600058 31.640002,9.144 31.248,9.144 C31.0879992,9.144 30.9220009,9.1340001 30.75,9.114 C30.5779991,9.0939999 30.4100008,9.06800016 30.246,9.036 C30.0819992,9.00399984 29.9280007,8.9680002 29.784,8.928 C29.6399993,8.8879998 29.5160005,8.84400024 29.412,8.796 L29.556,8.136 C29.8040012,8.24000052 30.0699986,8.32399968 30.354,8.388 C30.6380014,8.45200032 30.9359984,8.484 31.248,8.484 C31.8320029,8.484 32.2999982,8.33800146 32.652,8.046 C33.0040018,7.75399854 33.18,7.35600252 33.18,6.852 C33.18,6.55599852 33.1200006,6.30000108 33,6.084 C32.8799994,5.86799892 32.718001,5.69200068 32.514,5.556 C32.309999,5.41999932 32.0700014,5.31800034 31.794,5.25 C31.5179986,5.18199966 31.2200016,5.148 30.9,5.148 L29.796,5.148 L29.796,1.008 L33.72,1.008 L33.72,1.668 L30.6,1.668 L30.6,4.476 L31.08,4.476 C31.4560019,4.476 31.8199982,4.5259995 32.172,4.626 C32.5240018,4.7260005 32.8339987,4.87199904 33.102,5.064 C33.3700013,5.25600096 33.5839992,5.49599856 33.744,5.784 C33.9040008,6.07200144 33.984,6.40799808 33.984,6.792 Z M39.432,1.452 C38.9839978,1.6920012 38.5720019,1.93999872 38.196,2.196 C37.8199981,2.45200128 37.4920014,2.73399846 37.212,3.042 C36.9319986,3.35000154 36.6980009,3.69199812 36.51,4.068 C36.3219991,4.44400188 36.1880004,4.87599756 36.108,5.364 C36.3320011,5.09199864 36.6139983,4.8660009 36.954,4.686 C37.2940017,4.5059991 37.6839978,4.416 38.124,4.416 C38.4760018,4.416 38.7919986,4.47199944 39.072,4.584 C39.3520014,4.69600056 39.589999,4.84999902 39.786,5.046 C39.982001,5.24200098 40.1319995,5.4799986 40.236,5.76 C40.3400005,6.0400014 40.392,6.34799832 40.392,6.684 C40.392,7.03600176 40.3300006,7.3619985 40.206,7.662 C40.0819994,7.9620015 39.9120011,8.2219989 39.696,8.442 C39.4799989,8.6620011 39.2220015,8.83399938 38.922,8.958 C38.6219985,9.08200062 38.2960018,9.144 37.944,9.144 C37.5039978,9.144 37.1200016,9.05000094 36.792,8.862 C36.4639984,8.67399906 36.1920011,8.43400146 35.976,8.142 C35.7599989,7.84999854 35.5980005,7.52200182 35.49,7.158 C35.3819995,6.79399818 35.328,6.4320018 35.328,6.072 C35.328,5.45599692 35.4199991,4.8880026 35.604,4.368 C35.7880009,3.8479974 36.0479983,3.37400214 36.384,2.946 C36.7200017,2.51799786 37.1199977,2.13200172 37.584,1.788 C38.0480023,1.44399828 38.5599972,1.13600136 39.12,0.864 L39.432,1.452 Z M39.612,6.708 C39.612,6.16399728 39.4640015,5.75600136 39.168,5.484 C38.8719985,5.21199864 38.4720025,5.076 37.968,5.076 C37.5919981,5.076 37.2560015,5.15799918 36.96,5.322 C36.6639985,5.48600082 36.3800014,5.71999848 36.108,6.024 C36.0919999,6.32000148 36.1179997,6.61399854 36.186,6.906 C36.2540003,7.19800146 36.3639992,7.46199882 36.516,7.698 C36.6680008,7.93400118 36.8619988,8.12599926 37.098,8.274 C37.3340012,8.42200074 37.6159984,8.496 37.944,8.496 C38.2080013,8.496 38.441999,8.45000046 38.646,8.358 C38.850001,8.26599954 39.0239993,8.13800082 39.168,7.974 C39.3120007,7.80999918 39.4219996,7.62000108 39.498,7.404 C39.5740004,7.18799892 39.612,6.95600124 39.612,6.708 Z M45.864,1.68 L42.636,9 L41.808,9 L45.072,1.68 L41.472,1.68 L41.472,1.008 L45.744,1.008 L45.864,1.68 Z M49.416,0.864 C49.7120015,0.864 49.9939987,0.9039996 50.262,0.984 C50.5300013,1.0640004 50.765999,1.17799926 50.97,1.326 C51.174001,1.47400074 51.3339994,1.6579989 51.45,1.878 C51.5660006,2.0980011 51.624,2.35199856 51.624,2.64 C51.624,2.87200116 51.5820004,3.08599902 51.498,3.282 C51.4139996,3.47800098 51.2980007,3.66199914 51.15,3.834 C51.0019993,4.00600086 50.830001,4.16999922 50.634,4.326 C50.437999,4.48200078 50.2280011,4.63199928 50.004,4.776 C50.2440012,4.90400064 50.4739989,5.04599922 50.694,5.202 C50.9140011,5.35800078 51.1099991,5.53199904 51.282,5.724 C51.4540009,5.91600096 51.5899995,6.12799884 51.69,6.36 C51.7900005,6.59200116 51.84,6.8479986 51.84,7.128 C51.84,7.43200152 51.7740007,7.70799876 51.642,7.956 C51.5099993,8.20400124 51.3320011,8.41599912 51.108,8.592 C50.8839989,8.76800088 50.6260015,8.90399952 50.334,9 C50.0419985,9.09600048 49.7360016,9.144 49.416,9.144 C49.0799983,9.144 48.7640015,9.10000044 48.468,9.012 C48.1719985,8.92399956 47.9160011,8.79600084 47.7,8.628 C47.4839989,8.45999916 47.3120006,8.25200124 47.184,8.004 C47.0559994,7.75599876 46.992,7.47600156 46.992,7.164 C46.992,6.89199864 47.0419995,6.64000116 47.142,6.408 C47.2420005,6.17599884 47.3779991,5.96400096 47.55,5.772 C47.7220009,5.57999904 47.9179989,5.4040008 48.138,5.244 C48.3580011,5.0839992 48.5879988,4.93600068 48.828,4.8 C48.3719977,4.55199876 47.9880016,4.25200176 47.676,3.9 C47.3639984,3.54799824 47.208,3.1320024 47.208,2.652 C47.208,2.3719986 47.2659994,2.12000112 47.382,1.896 C47.4980006,1.67199888 47.657999,1.48400076 47.862,1.332 C48.066001,1.17999924 48.2999987,1.0640004 48.564,0.984 C48.8280013,0.9039996 49.1119985,0.864 49.416,0.864 Z M51.06,7.14 C51.06,6.91599888 51.0240004,6.71800086 50.952,6.546 C50.8799996,6.37399914 50.7760007,6.21400074 50.64,6.066 C50.5039993,5.91799926 50.332001,5.7740007 50.124,5.634 C49.915999,5.4939993 49.6800013,5.3440008 49.416,5.184 C49.1839988,5.33600076 48.970001,5.4819993 48.774,5.622 C48.577999,5.7620007 48.4040008,5.90799924 48.252,6.06 C48.0999992,6.21200076 47.9820004,6.37999908 47.898,6.564 C47.8139996,6.74800092 47.772,6.95599884 47.772,7.188 C47.772,7.59600204 47.9199985,7.91799882 48.216,8.154 C48.5120015,8.39000118 48.9119975,8.508 49.416,8.508 C49.9120025,8.508 50.3099985,8.38000128 50.61,8.124 C50.9100015,7.86799872 51.06,7.540002 51.06,7.14 Z M47.976,2.652 C47.976,2.852001 48.0039997,3.02799924 48.06,3.18 C48.1160003,3.33200076 48.2039994,3.47399934 48.324,3.606 C48.4440006,3.73800066 48.5939991,3.86799936 48.774,3.996 C48.9540009,4.12400064 49.1679988,4.25999928 49.416,4.404 C49.8320021,4.14799872 50.1759986,3.8800014 50.448,3.6 C50.7200014,3.3199986 50.856,3.00400176 50.856,2.652 C50.856,2.3319984 50.7320012,2.06000112 50.484,1.836 C50.2359988,1.61199888 49.8800023,1.5 49.416,1.5 C48.9439976,1.5 48.5860012,1.61199888 48.342,1.836 C48.0979988,2.06000112 47.976,2.3319984 47.976,2.652 Z M54.192,8.556 C54.6400022,8.3159988 55.0519981,8.06800128 55.428,7.812 C55.8040019,7.55599872 56.1319986,7.27400154 56.412,6.966 C56.6920014,6.65799846 56.9259991,6.31600188 57.114,5.94 C57.3020009,5.56399812 57.4359996,5.13200244 57.516,4.644 C57.307999,4.90800132 57.0300017,5.13199908 56.682,5.316 C56.3339983,5.50000092 55.9400022,5.592 55.5,5.592 C55.1559983,5.592 54.8440014,5.53600056 54.564,5.424 C54.2839986,5.31199944 54.046001,5.15800098 53.85,4.962 C53.653999,4.76599902 53.5020005,4.5280014 53.394,4.248 C53.2859995,3.9679986 53.232,3.66000168 53.232,3.324 C53.232,2.97199824 53.2899994,2.6460015 53.406,2.346 C53.5220006,2.0459985 53.6859989,1.7860011 53.898,1.566 C54.1100011,1.3459989 54.3659985,1.17400062 54.666,1.05 C54.9660015,0.92599938 55.3039981,0.864 55.68,0.864 C56.1200022,0.864 56.5039984,0.95799906 56.832,1.146 C57.1600016,1.33400094 57.4319989,1.57399854 57.648,1.866 C57.8640011,2.15800146 58.0259995,2.48599818 58.134,2.85 C58.2420005,3.21400182 58.296,3.5759982 58.296,3.936 C58.296,4.55200308 58.2040009,5.1199974 58.02,5.64 C57.8359991,6.1600026 57.5760017,6.63399786 57.24,7.062 C56.9039983,7.49000214 56.5040023,7.87599828 56.04,8.22 C55.5759977,8.56400172 55.0640028,8.87199864 54.504,9.144 L54.192,8.556 Z M54.012,3.288 C54.012,3.84000276 54.1539986,4.25199864 54.438,4.524 C54.7220014,4.79600136 55.1159975,4.932 55.62,4.932 C56.012002,4.932 56.3719984,4.84000092 56.7,4.656 C57.0280016,4.47199908 57.2999989,4.24800132 57.516,3.984 C57.524,3.68799852 57.4960003,3.39400146 57.432,3.102 C57.3679997,2.80999854 57.2600008,2.54800116 57.108,2.316 C56.9559992,2.08399884 56.7620012,1.89400074 56.526,1.746 C56.2899988,1.59799926 56.0080016,1.524 55.68,1.524 C55.4159987,1.524 55.182001,1.56999954 54.978,1.662 C54.773999,1.75400046 54.6000007,1.8799992 54.456,2.04 C54.3119993,2.2000008 54.2020004,2.38599894 54.126,2.598 C54.0499996,2.81000106 54.012,3.03999876 54.012,3.288 Z" id="0123456789"></path>
            <path d="M1.572,20.556 C2.02000224,20.3159988 2.43199812,20.0680013 2.808,19.812 C3.18400188,19.5559987 3.5119986,19.2740015 3.792,18.966 C4.0720014,18.6579985 4.30599906,18.3160019 4.494,17.94 C4.68200094,17.5639981 4.8159996,17.1320024 4.896,16.644 C4.68799896,16.9080013 4.41000174,17.1319991 4.062,17.316 C3.71399826,17.5000009 3.3200022,17.592 2.88,17.592 C2.53599828,17.592 2.2240014,17.5360006 1.944,17.424 C1.6639986,17.3119994 1.42600098,17.158001 1.23,16.962 C1.03399902,16.765999 0.88200054,16.5280014 0.774,16.248 C0.66599946,15.9679986 0.612,15.6600017 0.612,15.324 C0.612,14.9719982 0.66999942,14.6460015 0.786,14.346 C0.90200058,14.0459985 1.06599894,13.7860011 1.278,13.566 C1.49000106,13.3459989 1.7459985,13.1740006 2.046,13.05 C2.3460015,12.9259994 2.68399812,12.864 3.06,12.864 C3.5000022,12.864 3.88399836,12.9579991 4.212,13.146 C4.54000164,13.3340009 4.81199892,13.5739985 5.028,13.866 C5.24400108,14.1580015 5.40599946,14.4859982 5.514,14.85 C5.62200054,15.2140018 5.676,15.5759982 5.676,15.936 C5.676,16.5520031 5.58400092,17.1199974 5.4,17.64 C5.21599908,18.1600026 4.95600168,18.6339979 4.62,19.062 C4.28399832,19.4900021 3.88400232,19.8759983 3.42,20.22 C2.95599768,20.5640017 2.4440028,20.8719986 1.884,21.144 L1.572,20.556 Z M1.392,15.288 C1.392,15.8400028 1.53399858,16.2519986 1.818,16.524 C2.10200142,16.7960014 2.49599748,16.932 3,16.932 C3.39200196,16.932 3.75199836,16.8400009 4.08,16.656 C4.40800164,16.4719991 4.67999892,16.2480013 4.896,15.984 C4.90400004,15.6879985 4.87600032,15.3940015 4.812,15.102 C4.74799968,14.8099985 4.64000076,14.5480012 4.488,14.316 C4.33599924,14.0839988 4.14200118,13.8940007 3.906,13.746 C3.66999882,13.5979993 3.38800164,13.524 3.06,13.524 C2.79599868,13.524 2.56200102,13.5699995 2.358,13.662 C2.15399898,13.7540005 1.98000072,13.8799992 1.836,14.04 C1.69199928,14.2000008 1.58200038,14.3859989 1.506,14.598 C1.42999962,14.8100011 1.392,15.0399988 1.392,15.288 Z M9.504,12.864 C9.80000148,12.864 10.0819987,12.9039996 10.35,12.984 C10.6180013,13.0640004 10.853999,13.1779993 11.058,13.326 C11.262001,13.4740007 11.4219994,13.6579989 11.538,13.878 C11.6540006,14.0980011 11.712,14.3519986 11.712,14.64 C11.712,14.8720012 11.6700004,15.085999 11.586,15.282 C11.5019996,15.478001 11.3860007,15.6619991 11.238,15.834 C11.0899993,16.0060009 10.918001,16.1699992 10.722,16.326 C10.525999,16.4820008 10.3160011,16.6319993 10.092,16.776 C10.3320012,16.9040006 10.5619989,17.0459992 10.782,17.202 C11.0020011,17.3580008 11.1979991,17.531999 11.37,17.724 C11.5420009,17.916001 11.6779995,18.1279988 11.778,18.36 C11.8780005,18.5920012 11.928,18.8479986 11.928,19.128 C11.928,19.4320015 11.8620007,19.7079988 11.73,19.956 C11.5979993,20.2040012 11.4200011,20.4159991 11.196,20.592 C10.9719989,20.7680009 10.7140015,20.9039995 10.422,21 C10.1299985,21.0960005 9.8240016,21.144 9.504,21.144 C9.16799832,21.144 8.85200148,21.1000004 8.556,21.012 C8.25999852,20.9239996 8.00400108,20.7960008 7.788,20.628 C7.57199892,20.4599992 7.40000064,20.2520012 7.272,20.004 C7.14399936,19.7559988 7.08,19.4760016 7.08,19.164 C7.08,18.8919986 7.1299995,18.6400012 7.23,18.408 C7.3300005,18.1759988 7.46599914,17.964001 7.638,17.772 C7.81000086,17.579999 8.0059989,17.4040008 8.226,17.244 C8.4460011,17.0839992 8.6759988,16.9360007 8.916,16.8 C8.45999772,16.5519988 8.07600156,16.2520018 7.764,15.9 C7.45199844,15.5479982 7.296,15.1320024 7.296,14.652 C7.296,14.3719986 7.35399942,14.1200011 7.47,13.896 C7.58600058,13.6719989 7.74599898,13.4840008 7.95,13.332 C8.15400102,13.1799992 8.38799868,13.0640004 8.652,12.984 C8.91600132,12.9039996 9.19999848,12.864 9.504,12.864 Z M11.148,19.14 C11.148,18.9159989 11.1120004,18.7180009 11.04,18.546 C10.9679996,18.3739991 10.8640007,18.2140007 10.728,18.066 C10.5919993,17.9179993 10.420001,17.7740007 10.212,17.634 C10.003999,17.4939993 9.76800132,17.3440008 9.504,17.184 C9.27199884,17.3360008 9.05800098,17.4819993 8.862,17.622 C8.66599902,17.7620007 8.49200076,17.9079992 8.34,18.06 C8.18799924,18.2120008 8.07000042,18.3799991 7.986,18.564 C7.90199958,18.7480009 7.86,18.9559988 7.86,19.188 C7.86,19.596002 8.00799852,19.9179988 8.304,20.154 C8.60000148,20.3900012 8.99999748,20.508 9.504,20.508 C10.0000025,20.508 10.3979985,20.3800013 10.698,20.124 C10.9980015,19.8679987 11.148,19.540002 11.148,19.14 Z M8.064,14.652 C8.064,14.852001 8.09199972,15.0279992 8.148,15.18 C8.20400028,15.3320008 8.2919994,15.4739993 8.412,15.606 C8.5320006,15.7380007 8.6819991,15.8679994 8.862,15.996 C9.0420009,16.1240006 9.25599876,16.2599993 9.504,16.404 C9.92000208,16.1479987 10.2639986,15.8800014 10.536,15.6 C10.8080014,15.3199986 10.944,15.0040018 10.944,14.652 C10.944,14.3319984 10.8200012,14.0600011 10.572,13.836 C10.3239988,13.6119989 9.96800232,13.5 9.504,13.5 C9.03199764,13.5 8.67400122,13.6119989 8.43,13.836 C8.18599878,14.0600011 8.064,14.3319984 8.064,14.652 Z M17.544,13.68 L14.316,21 L13.488,21 L16.752,13.68 L13.152,13.68 L13.152,13.008 L17.424,13.008 L17.544,13.68 Z M22.476,13.452 C22.0279978,13.6920012 21.6160019,13.9399987 21.24,14.196 C20.8639981,14.4520013 20.5360014,14.7339985 20.256,15.042 C19.9759986,15.3500015 19.7420009,15.6919981 19.554,16.068 C19.3659991,16.4440019 19.2320004,16.8759976 19.152,17.364 C19.3760011,17.0919986 19.6579983,16.8660009 19.998,16.686 C20.3380017,16.5059991 20.7279978,16.416 21.168,16.416 C21.5200018,16.416 21.8359986,16.4719994 22.116,16.584 C22.3960014,16.6960006 22.633999,16.849999 22.83,17.046 C23.026001,17.242001 23.1759995,17.4799986 23.28,17.76 C23.3840005,18.0400014 23.436,18.3479983 23.436,18.684 C23.436,19.0360018 23.3740006,19.3619985 23.25,19.662 C23.1259994,19.9620015 22.9560011,20.2219989 22.74,20.442 C22.5239989,20.6620011 22.2660015,20.8339994 21.966,20.958 C21.6659985,21.0820006 21.3400018,21.144 20.988,21.144 C20.5479978,21.144 20.1640016,21.0500009 19.836,20.862 C19.5079984,20.6739991 19.2360011,20.4340015 19.02,20.142 C18.8039989,19.8499985 18.6420005,19.5220018 18.534,19.158 C18.4259995,18.7939982 18.372,18.4320018 18.372,18.072 C18.372,17.4559969 18.4639991,16.8880026 18.648,16.368 C18.8320009,15.8479974 19.0919983,15.3740021 19.428,14.946 C19.7640017,14.5179979 20.1639977,14.1320017 20.628,13.788 C21.0920023,13.4439983 21.6039972,13.1360014 22.164,12.864 L22.476,13.452 Z M22.656,18.708 C22.656,18.1639973 22.5080015,17.7560014 22.212,17.484 C21.9159985,17.2119986 21.5160025,17.076 21.012,17.076 C20.6359981,17.076 20.3000015,17.1579992 20.004,17.322 C19.7079985,17.4860008 19.4240014,17.7199985 19.152,18.024 C19.1359999,18.3200015 19.1619997,18.6139985 19.23,18.906 C19.2980003,19.1980015 19.4079992,19.4619988 19.56,19.698 C19.7120008,19.9340012 19.9059988,20.1259993 20.142,20.274 C20.3780012,20.4220007 20.6599984,20.496 20.988,20.496 C21.2520013,20.496 21.485999,20.4500005 21.69,20.358 C21.894001,20.2659995 22.0679993,20.1380008 22.212,19.974 C22.3560007,19.8099992 22.4659996,19.6200011 22.542,19.404 C22.6180004,19.1879989 22.656,18.9560012 22.656,18.708 Z M29.328,18.792 C29.328,19.1440018 29.2600007,19.4639986 29.124,19.752 C28.9879993,20.0400014 28.7980012,20.285999 28.554,20.49 C28.3099988,20.694001 28.0200017,20.8539994 27.684,20.97 C27.3479983,21.0860006 26.984002,21.144 26.592,21.144 C26.4319992,21.144 26.2660009,21.1340001 26.094,21.114 C25.9219991,21.0939999 25.7540008,21.0680002 25.59,21.036 C25.4259992,21.0039998 25.2720007,20.9680002 25.128,20.928 C24.9839993,20.8879998 24.8600005,20.8440002 24.756,20.796 L24.9,20.136 C25.1480012,20.2400005 25.4139986,20.3239997 25.698,20.388 C25.9820014,20.4520003 26.2799984,20.484 26.592,20.484 C27.1760029,20.484 27.6439982,20.3380015 27.996,20.046 C28.3480018,19.7539985 28.524,19.3560025 28.524,18.852 C28.524,18.5559985 28.4640006,18.3000011 28.344,18.084 C28.2239994,17.8679989 28.062001,17.6920007 27.858,17.556 C27.653999,17.4199993 27.4140014,17.3180003 27.138,17.25 C26.8619986,17.1819997 26.5640016,17.148 26.244,17.148 L25.14,17.148 L25.14,13.008 L29.064,13.008 L29.064,13.668 L25.944,13.668 L25.944,16.476 L26.424,16.476 C26.8000019,16.476 27.1639982,16.5259995 27.516,16.626 C27.8680018,16.7260005 28.1779987,16.871999 28.446,17.064 C28.7140013,17.256001 28.9279992,17.4959986 29.088,17.784 C29.2480008,18.0720014 29.328,18.4079981 29.328,18.792 Z M34.692,18.576 L34.692,21 L33.912,21 L33.912,18.576 L30.54,18.576 L30.432,17.94 L33.852,13.008 L34.692,13.008 L34.692,17.916 L35.796,17.916 L35.796,18.576 L34.692,18.576 Z M33.912,14.028 L31.26,17.916 L33.912,17.916 L33.912,14.028 Z M41.244,18.924 C41.244,19.2600017 41.1800006,19.5639986 41.052,19.836 C40.9239994,20.1080014 40.7460011,20.341999 40.518,20.538 C40.2899989,20.734001 40.0200016,20.8839995 39.708,20.988 C39.3959984,21.0920005 39.0520019,21.144 38.676,21.144 C38.5319993,21.144 38.3760008,21.1340001 38.208,21.114 C38.0399992,21.0939999 37.8760008,21.0660002 37.716,21.03 C37.5559992,20.9939998 37.4020007,20.9520002 37.254,20.904 C37.1059993,20.8559998 36.9720006,20.8040003 36.852,20.748 L37.02,20.088 C37.2600012,20.2000006 37.5219986,20.2919996 37.806,20.364 C38.0900014,20.4360004 38.3719986,20.472 38.652,20.472 C39.252003,20.472 39.6999985,20.3280014 39.996,20.04 C40.2920015,19.7519986 40.44,19.3960021 40.44,18.972 C40.44,18.6759985 40.3800006,18.4200011 40.26,18.204 C40.1399994,17.9879989 39.976001,17.8080007 39.768,17.664 C39.559999,17.5199993 39.3160014,17.4120004 39.036,17.34 C38.7559986,17.2679996 38.4600016,17.232 38.148,17.232 L37.644,17.232 L37.644,16.56 L38.088,16.56 C38.4000016,16.56 38.6879987,16.5200004 38.952,16.44 C39.2160013,16.3599996 39.447999,16.2440008 39.648,16.092 C39.848001,15.9399992 40.0039994,15.7580011 40.116,15.546 C40.2280006,15.3339989 40.284,15.0960013 40.284,14.832 C40.284,14.423998 40.1540013,14.1060011 39.894,13.878 C39.6339987,13.6499989 39.2760023,13.536 38.82,13.536 C38.5159985,13.536 38.2420012,13.5679997 37.998,13.632 C37.7539988,13.6960003 37.528001,13.7839994 37.32,13.896 L37.14,13.272 C37.3960013,13.1279993 37.6739985,13.0240003 37.974,12.96 C38.2740015,12.8959997 38.5799984,12.864 38.892,12.864 C39.2120016,12.864 39.5059987,12.9079996 39.774,12.996 C40.0420013,13.0840004 40.273999,13.2079992 40.47,13.368 C40.666001,13.5280008 40.8179995,13.7239988 40.926,13.956 C41.0340005,14.1880012 41.088,14.4479986 41.088,14.736 C41.088,15.2400025 40.9300016,15.6719982 40.614,16.032 C40.2979984,16.3920018 39.8800026,16.6639991 39.36,16.848 C39.9120028,16.9760006 40.3639982,17.2179982 40.716,17.574 C41.0680018,17.9300018 41.244,18.3799973 41.244,18.924 Z M42.78,13.332 C42.988001,13.1879993 43.2459985,13.0740004 43.554,12.99 C43.8620015,12.9059996 44.1879983,12.864 44.532,12.864 C44.8760017,12.864 45.1879986,12.9159995 45.468,13.02 C45.7480014,13.1240005 45.987999,13.275999 46.188,13.476 C46.388001,13.676001 46.5419995,13.9159986 46.65,14.196 C46.7580005,14.4760014 46.812,14.7919982 46.812,15.144 C46.812,15.7760032 46.6560016,16.3639973 46.344,16.908 C46.0319984,17.4520027 45.6120026,17.9999972 45.084,18.552 C44.891999,18.744001 44.7200008,18.9199992 44.568,19.08 C44.4159992,19.2400008 44.2700007,19.3879993 44.13,19.524 C43.9899993,19.6600007 43.8540007,19.7939993 43.722,19.926 C43.5899993,20.0580007 43.4520007,20.1919993 43.308,20.328 L46.956,20.328 L46.956,21 L42.396,21 L42.3,20.484 C42.508001,20.2599989 42.707999,20.048001 42.9,19.848 C43.092001,19.647999 43.2799991,19.452001 43.464,19.26 C43.6480009,19.067999 43.8299991,18.8780009 44.01,18.69 C44.1900009,18.5019991 44.3719991,18.304001 44.556,18.096 C44.9880022,17.6159976 45.3379987,17.1440023 45.606,16.68 C45.8740013,16.2159977 46.008,15.7160027 46.008,15.18 C46.008,14.6839975 45.8780013,14.2860015 45.618,13.986 C45.3579987,13.6859985 44.9720026,13.536 44.46,13.536 C44.1639985,13.536 43.9020011,13.5759996 43.674,13.656 C43.4459989,13.7360004 43.2200011,13.8399994 42.996,13.968 L42.78,13.332 Z M49.632,21 L49.632,13.848 L48,14.556 L47.76,13.932 L49.872,13.008 L50.436,13.008 L50.436,21 L49.632,21 Z M57.84,17.004 C57.84,17.5800029 57.7840006,18.1179975 57.672,18.618 C57.5599994,19.1180025 57.3900011,19.5559981 57.162,19.932 C56.9339989,20.3080019 56.6420018,20.6039989 56.286,20.82 C55.9299982,21.0360011 55.5080024,21.144 55.02,21.144 C54.5319976,21.144 54.1100018,21.0360011 53.754,20.82 C53.3979982,20.6039989 53.1060011,20.3080019 52.878,19.932 C52.6499989,19.5559981 52.4800006,19.1180025 52.368,18.618 C52.2559994,18.1179975 52.2,17.5800029 52.2,17.004 C52.2,16.4279971 52.2559994,15.8900025 52.368,15.39 C52.4800006,14.8899975 52.6499989,14.4520019 52.878,14.076 C53.1060011,13.6999981 53.3979982,13.4040011 53.754,13.188 C54.1100018,12.9719989 54.5319976,12.864 55.02,12.864 C55.5080024,12.864 55.9299982,12.9719989 56.286,13.188 C56.6420018,13.4040011 56.9339989,13.6999981 57.162,14.076 C57.3900011,14.4520019 57.5599994,14.8899975 57.672,15.39 C57.7840006,15.8900025 57.84,16.4279971 57.84,17.004 Z M55.02,20.484 C55.3880018,20.484 55.6999987,20.3960009 55.956,20.22 C56.2120013,20.0439991 56.4199992,19.8000016 56.58,19.488 C56.7400008,19.1759984 56.8559996,18.8080021 56.928,18.384 C57.0000004,17.9599979 57.036,17.5000025 57.036,17.004 C57.036,16.5159976 57.0000004,16.0600021 56.928,15.636 C56.8559996,15.2119979 56.7400008,14.8440016 56.58,14.532 C56.4199992,14.2199984 56.2120013,13.9740009 55.956,13.794 C55.6999987,13.6139991 55.3880018,13.524 55.02,13.524 C54.6519982,13.524 54.3400013,13.6139991 54.084,13.794 C53.8279987,13.9740009 53.6200008,14.2199984 53.46,14.532 C53.2999992,14.8440016 53.1840004,15.2119979 53.112,15.636 C53.0399996,16.0600021 53.004,16.5159976 53.004,17.004 C53.004,17.5000025 53.0399996,17.9599979 53.112,18.384 C53.1840004,18.8080021 53.2999992,19.1759984 53.46,19.488 C53.6200008,19.8000016 53.8279987,20.0439991 54.084,20.22 C54.3400013,20.3960009 54.6519982,20.484 55.02,20.484 Z" id="9876543210"></path>
        </g>
    </g>
</svg>