<?xml version="1.0" encoding="UTF-8"?>
<svg width="34px" height="35px" viewBox="0 0 34 35" version="1.1" xmlns="http://www.w3.org/2000/svg" xmlns:xlink="http://www.w3.org/1999/xlink">
    <!-- Generator: Sketch 44.1 (41455) - http://www.bohemiancoding.com/sketch -->
    <title>rechtspersoon</title>
    <desc>Created with Sketch.</desc>
    <defs></defs>
    <g id="Page-1" stroke="none" stroke-width="1" fill="none" fill-rule="evenodd">
        <g id="rechtspersoon" fill-rule="nonzero" fill="#FFFFFF">
            <polygon id="Shape" points="6.12675 12.68 10.7135 10.9963636 10.7135 0.190909091 6.12675 0.190909091"></polygon>
            <polygon id="Shape" points="18.69875 12.68 23.289 10.9963636 23.289 0.190909091 18.69875 0.190909091"></polygon>
            <path d="M0.52325,34.9272727 L33.446,34.9272727 L33.446,23.2909091 L0.52325,23.2909091 L0.52325,34.9272727 Z M16.29075,25.0836364 L19.82225,25.0836364 L19.82225,30.9545455 L16.29075,30.9545455 L16.29075,25.0836364 L16.29075,25.0836364 Z M10.0485,25.0836364 L13.58175,25.0836364 L13.58175,30.9545455 L10.0485,30.9545455 L10.0485,25.0836364 Z M3.57525,25.0836364 L7.105,25.0836364 L7.105,30.9545455 L3.57525,30.9545455 L3.57525,25.0836364 Z" id="Shape"></path>
            <polygon id="Shape" points="25.6725 16.4018182 24.77125 11.6490909 13.32625 16.4018182 11.956 11.6490909 0.52325 16.4018182 0.52325 21.4690909 33.44425 21.4690909 33.44425 16.4018182"></polygon>
        </g>
    </g>
</svg>