<?xml version="1.0" encoding="UTF-8"?>
<svg width="63px" height="54px" viewBox="0 0 63 54" version="1.1" xmlns="http://www.w3.org/2000/svg" xmlns:xlink="http://www.w3.org/1999/xlink">
    <!-- Generator: Sketch 44.1 (41455) - http://www.bohemiancoding.com/sketch -->
    <title>reload</title>
    <desc>Created with Sketch.</desc>
    <defs></defs>
    <g id="Page-1" stroke="none" stroke-width="1" fill="none" fill-rule="evenodd">
        <g id="reload" fill-rule="nonzero" fill="#FFFFFF">
            <path d="M56.2967104,21.4432415 L63,21.4432415 L52.1528496,34.1204424 L41.3056993,21.4432415 L47.4015484,21.4432415 C45.5809727,14.0468262 38.7614814,8.53273138 30.6455687,8.53273138 C23.7941594,8.53273138 17.592083,12.4987449 14.8451357,18.6364605 L6.8494144,15.2158104 C10.9865425,5.97266817 20.3270611,0 30.6455687,0 C43.591331,-1.73224866e-15 54.3539484,9.31140406 56.2967104,21.4432415 Z M32.3544313,54 C42.6729389,54 52.0134575,48.0273318 56.1505856,38.7841896 L48.1551137,35.3635395 C45.407917,41.5014989 39.2058406,45.4672686 32.3546806,45.4672686 C24.2387679,45.4672686 17.4190273,39.9531738 15.598701,32.5567585 L21.6943007,32.5567585 L10.8471504,19.8795576 L0,32.5567585 L6.70328957,32.5567585 C8.64605161,44.6888397 19.4084197,54 32.3544313,54 Z" id="Shape"></path>
        </g>
    </g>
</svg>