<?xml version="1.0" encoding="UTF-8"?>
<svg width="62px" height="51px" viewBox="0 0 62 51" version="1.1" xmlns="http://www.w3.org/2000/svg" xmlns:xlink="http://www.w3.org/1999/xlink">
    <!-- Generator: Sketch 44.1 (41455) - http://www.bohemiancoding.com/sketch -->
    <title>vervoermiddel</title>
    <desc>Created with Sketch.</desc>
    <defs></defs>
    <g id="Page-1" stroke="none" stroke-width="1" fill="none" fill-rule="evenodd">
        <g id="vervoermiddel">
            <path d="M5,20 L57,20 C59.7614237,20 62,22.2385763 62,25 L62,35 C62,37.7614237 59.7614237,40 57,40 L5,40 C2.23857625,40 3.38176876e-16,37.7614237 0,35 L0,25 L0,25 C-3.38176876e-16,22.2385763 2.23857625,20 5,20 L5,20 Z M8.70175439,35 C11.1046775,35 13.0526316,32.7614237 13.0526316,30 C13.0526316,27.2385763 11.1046775,25 8.70175439,25 C6.29883126,25 4.35087719,27.2385763 4.35087719,30 C4.35087719,32.7614237 6.29883126,35 8.70175439,35 Z M53.2982456,35 C55.7011687,35 57.6491228,32.7614237 57.6491228,30 C57.6491228,27.2385763 55.7011687,25 53.2982456,25 C50.8953225,25 48.9473684,27.2385763 48.9473684,30 C48.9473684,32.7614237 50.8953225,35 53.2982456,35 Z" id="Combined-Shape" fill="#FFFFFF"></path>
            <path d="M14.3438915,1 C13.4335053,1 12.6379885,1.61482928 12.4084858,2.49581261 L7.97986101,19.4958126 C7.93697339,19.6604438 7.91526667,19.8298743 7.91526667,20 C7.91526667,21.1045695 8.81069717,22 9.91526667,22 L51.0839347,22 C51.2540604,22 51.4234909,21.9782933 51.588122,21.9354057 C52.6570171,21.6569507 53.2977953,20.5647076 53.0193403,19.4958126 L48.5907155,2.49581261 C48.3612129,1.61482928 47.5656961,1 46.6553098,1 L14.3438915,1 Z" id="Rectangle-4" stroke="#FFFFFF" stroke-width="2"></path>
            <path d="M50,40 L58,40 L58,47 L58,47 C58,49.209139 56.209139,51 54,51 L54,51 L54,51 C51.790861,51 50,49.209139 50,47 L50,40 Z" id="Rectangle-5-Copy" fill="#FFFFFF"></path>
            <path d="M4,40 L12,40 L12,47 L12,47 C12,49.209139 10.209139,51 8,51 L8,51 L8,51 C5.790861,51 4,49.209139 4,47 L4,40 Z" id="Rectangle-5-Copy-2" fill="#FFFFFF"></path>
        </g>
    </g>
</svg>