<?xml version="1.0" encoding="UTF-8"?>
<svg width="360px" height="640px" viewBox="0 0 360 640" version="1.1" xmlns="http://www.w3.org/2000/svg" xmlns:xlink="http://www.w3.org/1999/xlink">
    <!-- Generator: Sketch 44.1 (41455) - http://www.bohemiancoding.com/sketch -->
    <title>Mobile</title>
    <desc>Created with Sketch.</desc>
    <defs>
        <rect id="path-1" x="0" y="0" width="360" height="640"></rect>
        <polygon id="path-3" points="0.192488095 0.220659341 24.7367024 0.220659341 24.7367024 39.8773626 0.192488095 39.8773626 0.192488095 0.220659341"></polygon>
    </defs>
    <g id="Page-1" stroke="none" stroke-width="1" fill="none" fill-rule="evenodd">
        <g id="Mobile">
            <mask id="mask-2" fill="white">
                <use xlink:href="#path-1"></use>
            </mask>
            <use id="Rectangle" fill="#023867" xlink:href="#path-1"></use>
            <path d="M-0.331511733,546 L133.357375,433.066513 L133.260499,414.752389 L1.21850434,526.041264 L1.21850434,509.176456 L133.025717,397.75236 L133.025717,381.975247 C100.0666,360.149653 75.8916684,344.098629 60.5009205,333.822175 C64.0021333,399.277302 -0.331511733,394.120079 2.23513253,428.823344 C18.9924019,433.066513 18.3240813,445.042666 18.9924019,449.618633 C18.9924019,453.676028 15.2586867,467.459774 -0.331511733,469.106666 C-13.5378006,468.008738 -20.7332184,461.495251 -21.917765,449.566206 C-20.5561822,437.669833 -14.9286361,430.768842 -5.03512668,428.863234 C-29.398872,364.420176 56.9541191,369.861188 38.1088869,303.833923 C45.2116076,306.938514 47.8922236,310.179871 53.5839738,318.197785 C61.7853824,277.838102 32.8262953,263.671411 25.9503784,261.699699 C38.1088869,333.822175 -47.6297963,331.5416 -22.9651656,402.460534 C-32.6174348,395.624507 -44.7018615,381.975247 -44.7018615,358.581402 C-42.0497384,294.43923 14.349192,302.201847 2.23513253,240.981911 C7.40413221,240.981911 12.3159356,244.322043 16.9705427,251.002309 C19.5926532,220.074169 7.53481984,201.406733 -19.2029574,195 C22.5574388,273.036471 -113.527134,263.089015 -60.0413221,374.33458 C-64.7881374,389.301466 -73.1076967,398.676784 -85,402.460534 L-27.3143283,522.957188 L-0.331511733,546 Z" id="Path-2" fill="#00203A" mask="url(#mask-2)"></path>
            <g id="politie-nederland-vector-logo" mask="url(#mask-2)">
                <g transform="translate(125.000000, 234.000000)">
                    <g id="Group-75" stroke-width="1" fill="none" transform="translate(14.095238, 0.000000)">
                        <mask id="mask-4" fill="white">
                            <use xlink:href="#path-3"></use>
                        </mask>
                        <g id="Clip-73"></g>
                        <path d="M20.6565714,31.7723077 C20.6565714,29.6259341 20.0984881,28.2716484 18.9100833,26.7947253 L15.9139643,29.3015385 C16.5645476,30.0830769 16.6852381,30.5938462 16.7134286,31.7841758 C16.7715714,34.1384615 14.8259881,36.0118681 12.4945476,36.0118681 C10.1635476,36.0118681 8.26025,34.1107692 8.27214286,31.7841758 C8.27434524,31.4131868 8.35671429,30.8826374 8.46683333,30.4338462 L5.3447381,27.8149451 C4.84655952,28.6281319 4.4047619,29.4575824 4.36467857,31.7723077 C4.28847619,36.1942857 8.00125,39.8773626 12.4888214,39.8773626 C16.9724286,39.8773626 20.6565714,36.2483516 20.6565714,31.7723077" id="Fill-72" fill="#FFFFFF" mask="url(#mask-4)"></path>
                        <path d="M24.7367024,21.916044 L24.7367024,20.3248352 L12.5447619,30.5481319 L12.5447619,28.9586813 L24.7367024,18.7481319 L24.7367024,17.3472527 L18.0423452,12.9173626 C18.1872619,13.4021978 18.2515714,14.4742857 17.6269762,15.8083516 C16.8279524,17.5178022 14.8039643,18.8681319 14.1732024,19.2650549 C13.4080952,19.7476923 13.0068214,20.2246154 12.8804048,20.6378022 C12.8099286,20.8782418 12.7055357,21.229011 12.7980357,21.6030769 C13.4887024,21.7274725 14.2599762,22.3345055 14.2476429,23.3868132 C14.2375119,24.4206593 13.4080952,25.258022 12.3720952,25.258022 C11.3360952,25.258022 10.4767262,24.4206593 10.4969881,23.3868132 C10.5128452,22.6250549 10.9727024,21.7995604 11.97875,21.549011 C11.7360476,20.7736264 11.6254881,20.4773626 11.635619,19.4835165 C11.6536786,17.5898901 13.6732619,15.989011 13.6732619,15.989011 C15.095119,14.7608791 16.0104286,13.6786813 16.1910238,12.5468132 C16.3636905,11.4725275 15.8941429,10.1182418 15.8941429,10.1182418 C16.3980476,10.2764835 16.6288571,10.4668132 16.9059167,10.7573626 C17.1349643,10.9956044 17.3719405,11.4083516 17.3719405,11.4083516 C17.6692619,10.4887912 17.5886548,9.75340659 17.4441786,9.15648352 C17.2794405,8.47912088 16.9984167,7.80175824 16.2896905,7.1767033 C15.4924286,6.47120879 14.8180595,6.31692308 14.8180595,6.31692308 C15.002619,6.68967033 15.1272738,7.19076923 15.0286071,8.23868132 C14.930381,9.30285714 14.6572857,9.90153846 13.9384286,10.8712088 C13.2680238,11.7771429 11.9184048,12.8734066 11.1114524,13.9714286 C10.368369,14.9850549 10.0512262,15.9006593 10.0049762,16.6940659 C9.9345,17.9063736 10.4366429,19.1986813 10.4366429,19.1986813 C9.9547619,18.9323077 9.39271429,18.4175824 9.03108333,17.7261538 C8.62936905,16.9525275 8.42454762,16.2874725 8.39855952,15.007033 C8.37653571,13.887033 8.79807143,12.2861538 9.69972619,11.1723077 C10.3282857,10.3925275 11.8624643,8.90593407 12.4223095,7.73142857 C12.9825952,6.55956044 12.9024286,5.91824176 12.9024286,5.43956044 C12.9024286,4.96043956 12.6672143,4.24923077 12.6672143,4.24923077 C12.9988929,4.31340659 13.4442143,4.6 13.5812024,4.72 C13.8217024,4.93230769 14.0309286,5.14065934 14.0309286,5.14065934 C14.0829048,4.78197802 14.1212262,4.1789011 13.9626548,3.36571429 C13.7217143,2.15340659 13.1614286,1.44395604 12.3742976,0.834725275 C11.5127262,0.165714286 10.7137024,0.221538462 10.7137024,0.221538462 C11.0669643,0.666813187 11.3079048,1.14549451 11.4404881,1.8567033 C11.5611786,2.53186813 11.5510476,3.33934066 11.1938214,4.16087912 C10.7599524,5.15516484 9.61735714,6.03648352 8.76195238,6.88 C7.89245238,7.73758242 7.10752381,8.6356044 6.51728571,9.85538462 C5.80855952,11.3182418 5.7460119,12.4004396 6.00721429,13.850989 C6.3085,15.5340659 7.23217857,16.6079121 7.23217857,16.6079121 C6.54944048,16.3516484 5.9552381,15.9248352 5.56145238,15.4962637 C5.16414286,15.0571429 4.90294048,14.5841758 4.75405952,14.1556044 L0.200416667,17.2536264 L0.192488095,21.916044 L12.4584286,32.1951648 L15.9139643,29.3015385 L18.9100833,26.7947253 L24.7367024,21.916044" id="Fill-74" fill="#BC9233" mask="url(#mask-4)"></path>
                    </g>
                    <polyline id="Fill-76" fill="#FFFFFF" points="104.82056 28.8167033 104.82056 25.4949451 110.181155 25.4949451 110.181155 22.7213187 104.82056 22.7213187 104.82056 19.6958242 110.600929 19.6958242 110.600929 16.9226374 100.901202 16.9226374 100.901202 31.5920879 110.653345 31.5920879 110.653345 28.8167033 104.82056 28.8167033"></polyline>
                    <polygon id="Fill-77" fill="#FFFFFF" points="87.8340357 31.5775824 91.7489881 31.5775824 91.7489881 16.9063736 87.8340357 16.9063736"></polygon>
                    <polyline id="Fill-78" fill="#FFFFFF" points="51.928619 28.6725275 46.3869881 28.6725275 46.3869881 16.9006593 42.467631 16.9006593 42.467631 31.5740659 51.928619 31.5740659 51.928619 28.6725275"></polyline>
                    <polyline id="Fill-79" fill="#FFFFFF" points="73.1001071 31.5876923 77.0190238 31.5876923 77.0190238 19.818022 80.6419405 19.818022 80.6419405 16.9164835 69.477631 16.9164835 69.477631 19.818022 73.1001071 19.818022 73.1001071 31.5876923"></polyline>
                    <polygon id="Fill-80" fill="#FFFFFF" points="58.349881 31.5797802 62.2652738 31.5797802 62.2652738 16.9085714 58.349881 16.9085714"></polygon>
                    <path d="M5.34561905,25.3204396 L4.32591667,25.3142857 L4.32591667,19.6597802 L5.34561905,19.6597802 C6.70713095,19.6597802 7.88760714,20.9503297 7.88760714,22.4589011 C7.88760714,24.0096703 6.70713095,25.3204396 5.34561905,25.3204396 Z M5.08485714,16.9046154 L0.408321429,16.9046154 L0.408321429,31.5758242 L4.32591667,31.5758242 L4.32591667,28.2918681 L5.50463095,28.2874725 C9.43588095,28.3775824 11.7307619,25.5406593 11.6748214,22.5230769 C11.6184405,19.2228571 9.57066667,16.9046154 5.08485714,16.9046154 L5.08485714,16.9046154 Z" id="Fill-81" fill="#FFFFFF"></path>
                </g>
            </g>
            <text id="Loading-MEOS…" mask="url(#mask-2)" font-family="Arial-BoldMT, Arial" font-size="12" font-weight="bold" fill="#FFFFFF">
                <tspan x="131" y="315">Loading MEOS…</tspan>
            </text>
        </g>
    </g>
</svg>